<?xml version="1.0" encoding="UTF-8"?><svg id="Layer_1" xmlns="http://www.w3.org/2000/svg" xmlns:xlink="http://www.w3.org/1999/xlink" viewBox="0 0 182 231"><defs><style>.cls-1{fill:none;}.cls-2{fill:#eee;}.cls-3{fill:#edbf85;}.cls-4{fill:url(#New_Pattern_5);}</style><pattern id="New_Pattern_5" x="0" y="0" width="74" height="74" patternTransform="translate(10981.42 -27161.48) scale(1.71 -1.71)" patternUnits="userSpaceOnUse" viewBox="0 0 74 74"><g><rect class="cls-1" width="74" height="74"/><g><rect class="cls-1" width="74" height="74"/><rect class="cls-3" width="74" height="74"/><g><path class="cls-2" d="M31.22,70.01c0-.27,.05-.53,.04-.8-.01-.27-.12-.48-.08-.76,.03-.22,.12-.39,.14-.61,.02-.27,.02-.54,.05-.81,.01-.14,.04-.3,.06-.47,.04-.36,.04-.75-.2-.98-.22-.21-.5-.39-.76-.54-.04-.02-.08-.04-.11-.07-.4-.23-.8-.25-1.22-.42-.21-.08-.37-.14-.6-.19-.64-.16-1.27-.36-1.88-.61-1.65-.67-3.2-1.72-4.2-3.23-.09-.14-.17-.29-.26-.43-.09-.15-.43-.49-.36-.69,.07-.18,.3-.1,.53,.05,.23,.14,.46,.34,.53,.39,.33,.22,.77,.35,1.13,.52,.37,.18,.74,.36,1.1,.55,.86,.45,1.7,.94,2.49,1.5,.39,.27,.77,.57,1.12,.88,.41,.37,.78,.82,1.28,1.09,.21,.12,.41,.23,.61,.35,.33,.2,.65,.41,.94,.69,.18-1.3,.41-2.53,.63-3.72l.21-1.11c.06-.3,.15-.61,.06-.92-.02-.07-.06-.15-.11-.22-.08-.12-.18-.24-.26-.35-.24-.33-.52-.63-.82-.9-.23-.22-.48-.42-.75-.6-.09-.06-.29-.25-.4-.26-.78-.04-1.56-.41-2.24-.76-.91-.47-1.75-1.05-2.55-1.68-.28-.22-.52-.47-.79-.7-.22-.19-.55-.34-.72-.57-.11-.14-.2-.38,.02-.44,.14-.03,.4,.08,.54,.11,.19,.04,.38,.09,.57,.14,.72,.21,1.46,.4,2.15,.71,1.04,.47,1.95,1.16,2.68,2.04,.28,.34,.44,.77,.8,1.01,.36,.23,.69,.5,1,.79,.4,.38,.76,.8,1.05,1.27-.03-.05,.05-.31,.06-.37,.02-.14-.02-.27-.02-.42,0-.19,.08-.36,.14-.54,.08-.23,.08-.5,.11-.74,.06-.56,.1-1.11,.12-1.67,0-.44,.07-.93,0-1.37-.06-.33-.25-.65-.46-.9-.25-.29-.52-.56-.8-.82-.27-.26-.54-.51-.85-.73-.27-.19-.56-.44-.85-.59-.35-.18-.7-.31-1.03-.52-.75-.47-1.45-1.03-2.02-1.71-.3-.36-.56-.76-.75-1.19-.2-.46-.61-.95-.56-1.47,.34,.03,.49,.35,.73,.53,.85,.63,1.78,1.14,2.57,1.86,.38,.35,.74,.73,1.04,1.15,.34,.48,.5,1.02,.9,1.47,.2,.23,.5,.41,.74,.62,.47,.41,.92,.86,1.3,1.35-.13-.16-.04-.38-.08-.57-.03-.15-.12-.29-.14-.44-.04-.33,0-.64-.07-.97-.08-.39-.17-.78-.28-1.16-.33-1.19-.78-2.35-1.31-3.47-.27-.57-.54-1.15-.87-1.69-.22-.35-.71-.63-1.07-.83-.26-.14-.5-.31-.73-.5-.68-.54-1.25-1.23-1.72-1.96-.24-.38-.41-.81-.62-1.21-.08-.16-.2-.29-.29-.44-.1-.19-.12-.4-.25-.59-.05-.07-.33-.59-.16-.64,.24-.07,.47,.25,.61,.4,.19,.2,.39,.41,.6,.58,.3,.24,.63,.42,.97,.6s.58,.52,.88,.75c.37,.28,.64,.68,.87,1.08,.14,.24,.33,.47,.44,.73,.07,.16,.12,.32,.17,.48,.12,.34,.23,.69,.37,1.03,.1,.25,.27,.51,.43,.73,.14,.18,.23,.41,.33,.61,.21,.42,.42,.85,.61,1.28,.34,.78,.64,1.57,.89,2.38,.11,.38,.22,.75,.31,1.14,.04,.18,.09,.37,.12,.56,.02,.08,.15,.47,.1,.53,.41-.54,.81-1.1,1.2-1.66,.41-.6,.41-1.13,.34-1.84,0-.1-.02-.19-.03-.29-.08-.87-.02-1.72,.23-2.56,.09-.31,.28-.55,.4-.84,.15-.37,.16-.85,.16-1.24,0-.17,0-.53,.27-.43,.02,0,.26,.53,.28,.6,.16,.38,.23,.8,.24,1.21,0,.45,.06,.92,.04,1.37-.03,.63,0,1.25-.24,1.84-.2,.47-.44,.92-.7,1.35-.13,.21-.26,.41-.39,.61-.13,.19-.2,.34-.35,.5-.15,.16-.26,.37-.38,.54-.19,.28-.39,.55-.59,.82-.16,.22-.27,.48-.32,.75-.07,.36,.06,.71,.1,1.07,.02,.19,.09,.37,.11,.56,0,.1,0,.19,0,.29,0,.09,0,.19,0,.28-.07,.37-.05,.74-.06,1.12-.02,.69-.08,1.37-.16,2.06,.02-.13,.42-.4,.52-.49,.17-.15,.34-.29,.52-.42,.3-.23,.62-.42,.93-.63,.3-.21,.62-.4,.9-.64l.24-.21c.23-.22,.44-.46,.65-.7,.12-.14,.26-.25,.38-.39,.69-.77,1.54-1.33,2.31-2l.96-.84c.14-.12,.74-.86,.95-.74,.1,.06,.03,.16,0,.24-.14,.34-.35,.65-.47,1.01-.11,.33-.26,.64-.43,.94-.06,.1-.12,.2-.18,.29-.47,.71-1.1,1.29-1.8,1.77-.52,.35-1.07,.65-1.64,.89-.28,.12-.57,.22-.86,.31-.55,.17-1.03,.47-1.5,.8-.27,.2-.54,.4-.79,.63-.14,.12-.27,.25-.4,.38-.2,.2-.23,.47-.34,.72-.15,.34-.12,.64-.12,.99,0,.2-.1,.4-.13,.59-.02,.13-.04,.26-.09,.39-.12,.33-.11,.68-.2,1.01-.05,.18-.04,.4-.1,.59-.05,.16-.09,.29-.12,.46-.07,.46-.17,.91-.25,1.37-.07,.4-.13,.79-.19,1.19-.05,.34,.05,.65-.1,.97-.14,.32-.12,.77-.15,1.12,.01-.13,.25-.37,.34-.47,.13-.16,.26-.32,.4-.47,.26-.29,.54-.55,.83-.81,.27-.24,.56-.44,.83-.66,.16-.13,.32-.28,.46-.44,.16-.18,.32-.34,.45-.54,.02-.03,.04-.06,.05-.09,.16-.3,.33-.58,.53-.86,.3-.42,.63-.82,1-1.17,.61-.59,1.31-1.08,2.08-1.43,.54-.25,1.11-.44,1.69-.55,.28-.05,.57-.11,.84-.2,.11-.03,.5-.22,.58-.13,.17,.17-.19,.57-.28,.7s-.17,.26-.24,.4c-.07,.14-.15,.27-.23,.4-.19,.3-.47,.55-.73,.79-.69,.62-1.48,1.13-2.3,1.57-.57,.31-1.16,.6-1.76,.86-.29,.12-.6,.22-.88,.36-.21,.1-.37,.25-.59,.33-.17,.06-.29,.15-.43,.26l-.03,.02c-.32,.24-.63,.5-.93,.77-.36,.32-.7,.66-1,1.04-.15,.18-.34,.39-.43,.61-.16,.37-.2,.76-.21,1.15,0,.24-.06,.49-.07,.73,0,.33,0,.65-.01,.98-.02,.58,.03,1.16,.05,1.74,.02,.5,.17,.99,.2,1.49,0,.1,.02,.19,.03,.29h-.41c-.1-.7-.17-1.41-.22-2.12-.04-.62-.06-1.25-.06-1.87h-.07Z"/><path class="cls-2" d="M5.57,73.15c.28-.1,.59-.23,.88-.29,.74-.16,1.56-.26,2.31-.09,.11,.03,.36-.1,.46-.14,.3-.1,.6-.23,.88-.37,.36-.18,.71-.4,1.04-.64,.1-.08,.23-.17,.34-.26,.07-.06,.13-.12,.17-.18,.18-.27,.17-.59,.2-.9,.04-.37,.07-.75,.11-1.12,.12-1.21,.24-2.45,.43-3.75-.36,.18-.72,.3-1.09,.4-.22,.06-.45,.11-.68,.16-.44,.1-.83,.33-1.23,.54-.36,.19-.9,.28-1.16,.6-.23,.29-.38,.56-.76,.69-.43,.15-.85,.28-1.29,.4-.7,.19-1.43,.08-2.13,.24-.35,.08-.61,.3-.93,.43-.12,.05-.22,.07-.32,.16-.13,.12-.18,.32-.34,.42-.24,.14-.19-.18-.15-.31,.04-.15,.1-.3,.16-.44,.18-.42,.43-.76,.68-1.14,.25-.37,.63-.51,1-.74,.53-.33,1.05-.65,1.62-.9,.57-.25,1.13-.25,1.74-.3,.56-.05,1.12-.06,1.68-.03,.23,0,.4,0,.63-.02,.4-.04,.81,.04,1.2-.03,.36-.06,.77-.21,1.09-.38,.23-.12,.36-.38,.4-.63,.05-.25,.12-.5,.14-.76,.08-.76,.21-1.51,.37-2.26,.09-.43,.14-.86,.25-1.29,.11-.4,.24-.8,.35-1.2,.19-.71,.36-1.38,.48-2.1,.13-.81,.32-1.64,.15-2.46-.07-.34-.04-.68-.1-1.02-.06-.36-.55-1.72,.31-1.57,.41,.07,.36,.92,.44,1.22,.13,.5,.17,1.15,.09,1.66s-.11,1.03-.16,1.55c-.04,.49-.18,.96-.31,1.43-.12,.46-.21,.92-.35,1.38-.12,.39-.26,.77-.35,1.17-.06,.29-.21,.53-.25,.82-.04,.24-.04,.5-.11,.73-.17,.51-.19,1.04-.12,1.56,.03,.23,.16,.49,.25,.7,.19,.44,.42,.87,.67,1.28,.21,.34,.44,.68,.68,1l.02,.03c.11,.15,.2,.26,.35,.37,.19,.14,.3,.32,.47,.48,.23,.21,.5,.39,.75,.59,.48,.4,.86,.82,1.27,1.29,.37,.43,.75,.88,.89,1.44,.06,.24,.06,.49,.12,.74,.07,.28,.17,.55,.27,.83,.2,.55,.54,.92,.87,1.38,.1,.14,.23,.29,.31,.45,0,0,.01,.03,.02,.04h-.88c-.09-.04-.19-.09-.28-.14-.6-.32-1.15-.71-1.73-1.06-.58-.35-1.02-.87-1.28-1.49-.14-.33-.23-.68-.35-1.01-.1-.27-.13-.52-.11-.8,.02-.28-.04-.49-.14-.76-.11-.33-.16-.69-.3-1.01-.17-.4-.29-.79-.53-1.15-.2-.29-.42-.57-.61-.87-.21-.33-.4-.66-.57-1.01-.09-.18-.18-.37-.25-.56-.05-.12-.22-.41-.19-.54-.07,.34-.22,.77-.17,1.12s-.13,.62-.18,.96c-.05,.4-.1,.8-.15,1.19-.05,.46-.09,.93-.14,1.39-.02,.17-.02,.3-.02,.47,0,.2-.06,.4-.06,.6,0,.35-.11,.68-.09,1.03,0,.14-.01,.27-.03,.4-.05,.44-.05,.91-.13,1.34-.06,.33-.1,.73,.06,1.04,.09,.16,.18,.32,.28,.48,.08,.13,.17,.26,.26,.39h-.45c-.05-.07-.1-.15-.15-.21-.1-.13-.3-.33-.27-.52-.04,.24-.09,.49-.13,.73h-.35l.06-.33c.05-.25,.12-.49,.18-.73s.03-.5,.04-.75c0-.1,0-.52,.08-.58-.41,.37-.87,.68-1.36,.93-.82,.42-1.65,.75-2.36,1.34-.06,.05-.12,.09-.18,.13h-3.76c.07-.03,.14-.05,.2-.08,.48-.21,.83-.59,1.33-.77v-.03Z"/><path class="cls-2" d="M26.11,71.8c.12-.06,.52-.07,.61,.02,.16,.15,.06,.32-.02,.48-.09,.17-.09,.34-.15,.53-.04,.1-.1,.19-.14,.3-.1,.27-.2,.58-.28,.88h-.66c.11-.46,.22-.92,.34-1.37,.06-.2,.1-.72,.3-.83h0Z"/><path class="cls-2" d="M6.16,1.18c-.41,.27-1.05,.4-1.53,.48-.47,.08-.97,.03-1.45,.03-.37,0-.73-.1-1.09-.11-.29,0-.55,.07-.82-.11-.29-.19,.25-.33,.38-.45,.31-.26,.72-.48,1.1-.62,.42-.16,.87-.25,1.29-.41h3.76c-.18,.11-.38,.19-.55,.31-.38,.27-.7,.62-1.09,.87h0Z"/><path class="cls-2" d="M.71,35.6c.12,.14,.26,.25,.38,.39,.21,.23,.42,.47,.65,.69,.08,.07,.15,.14,.24,.21,.28,.23,.61,.42,.9,.64,.3,.22,.63,.41,.93,.63,.18,.13,.35,.28,.52,.42,.1,.09,.51,.36,.52,.49-.08-.68-.14-1.37-.16-2.06-.01-.37,0-.75-.06-1.12-.02-.09,0-.19-.01-.28-.01-.1-.02-.19-.01-.29,.02-.19,.09-.37,.11-.56,.04-.36,.17-.7,.1-1.07-.05-.27-.16-.53-.32-.75-.2-.27-.4-.54-.59-.82-.12-.17-.23-.38-.38-.54-.15-.16-.22-.32-.35-.5-.13-.2-.26-.4-.39-.61-.26-.43-.5-.88-.7-1.35-.25-.59-.21-1.21-.24-1.84-.02-.44,.03-.92,.04-1.37,0-.41,.08-.83,.24-1.21,.03-.06,.26-.59,.28-.6,.28-.09,.27,.27,.27,.43,0,.4,0,.87,.16,1.24,.12,.29,.3,.54,.4,.84,.26,.84,.31,1.69,.23,2.56,0,.1-.02,.19-.03,.29-.08,.71-.07,1.24,.34,1.84,.39,.56,.78,1.12,1.2,1.66-.04-.06,.09-.45,.1-.53,.04-.19,.08-.37,.12-.56,.09-.38,.2-.76,.31-1.14,.25-.81,.55-1.61,.89-2.38,.19-.43,.39-.86,.61-1.28,.1-.2,.19-.43,.33-.61,.16-.22,.33-.48,.43-.73,.14-.34,.25-.69,.37-1.03,.06-.16,.1-.33,.17-.48,.11-.25,.3-.49,.44-.73,.23-.4,.5-.8,.87-1.08,.3-.23,.55-.56,.88-.75,.33-.18,.67-.37,.97-.6,.21-.17,.42-.38,.6-.58,.14-.15,.37-.47,.61-.4,.17,.05-.11,.57-.16,.64-.13,.18-.15,.4-.25,.59-.09,.15-.2,.28-.29,.44-.21,.4-.38,.83-.62,1.21-.47,.74-1.04,1.42-1.72,1.96-.23,.18-.47,.36-.73,.5-.36,.2-.85,.48-1.07,.83-.33,.53-.61,1.12-.87,1.69-.53,1.12-.98,2.28-1.31,3.47-.11,.38-.2,.77-.28,1.16-.07,.32-.03,.64-.07,.97-.02,.16-.11,.29-.14,.44-.04,.18,.05,.4-.08,.57,.39-.49,.83-.94,1.3-1.35,.23-.21,.53-.38,.74-.62,.4-.45,.55-.99,.9-1.47,.3-.42,.66-.81,1.04-1.15,.79-.72,1.71-1.23,2.57-1.86,.24-.18,.39-.5,.73-.53,.06,.53-.36,1.02-.56,1.47-.19,.43-.45,.83-.75,1.19-.57,.68-1.28,1.24-2.02,1.71-.34,.21-.68,.34-1.03,.52-.29,.15-.58,.39-.85,.59-.31,.22-.58,.47-.85,.73-.28,.26-.55,.53-.8,.82-.21,.25-.4,.57-.46,.9-.08,.44-.03,.93-.01,1.37,.02,.56,.06,1.12,.12,1.67,.03,.24,.03,.51,.11,.74,.06,.18,.15,.35,.14,.54,0,.14-.04,.27-.02,.42,0,.07,.09,.32,.06,.37,.29-.47,.65-.89,1.05-1.27,.31-.29,.64-.56,1-.79,.36-.24,.52-.67,.8-1.01,.73-.88,1.64-1.58,2.68-2.04,.69-.31,1.42-.5,2.15-.71,.19-.05,.38-.1,.57-.14,.14-.03,.4-.14,.54-.11,.22,.06,.13,.29,.02,.44-.17,.24-.5,.38-.72,.57-.26,.23-.51,.48-.79,.7-.8,.63-1.64,1.21-2.55,1.68-.68,.35-1.46,.71-2.24,.76-.11,0-.32,.2-.4,.26-.26,.18-.51,.39-.75,.6-.3,.28-.57,.58-.82,.9-.08,.1-.18,.22-.26,.35-.05,.07-.09,.15-.11,.22-.1,.31,0,.62,.06,.92l.21,1.11c.22,1.19,.45,2.42,.63,3.72,.29-.27,.61-.49,.94-.69,.2-.12,.4-.23,.61-.35,.49-.28,.87-.73,1.28-1.09,.35-.32,.73-.61,1.12-.88,.79-.56,1.63-1.05,2.49-1.5,.36-.19,.73-.37,1.1-.55,.36-.17,.8-.3,1.13-.52,.07-.05,.3-.25,.53-.39,.23-.15,.46-.23,.53-.05,.07,.2-.26,.54-.36,.69-.09,.14-.16,.29-.26,.43-1,1.51-2.55,2.55-4.2,3.23-.61,.25-1.24,.45-1.88,.61-.23,.06-.39,.11-.6,.19-.42,.16-.82,.19-1.22,.42-.04,.02-.07,.04-.11,.07-.27,.16-.54,.33-.76,.54-.24,.23-.24,.62-.2,.98,.02,.17,.04,.33,.06,.47,.03,.27,.03,.54,.05,.81,.02,.22,.11,.4,.14,.61,.03,.27-.07,.49-.08,.76-.01,.27,.04,.53,.04,.8,0,.62-.02,1.25-.06,1.87-.09,1.39-.28,2.77-.57,4.13-.14,.68-.3,1.36-.49,2.03-.06,.2-.1,.72-.3,.83-.12,.06-.52,.07-.61-.02-.16-.15-.06-.32,.02-.48,.09-.17,.09-.34,.15-.53,.04-.11,.1-.19,.14-.3,.13-.33,.24-.71,.32-1.06,.09-.38,.25-.75,.37-1.12,.16-.54,.33-1.08,.36-1.64,.03-.5,.18-.98,.2-1.49,.02-.58,.07-1.16,.05-1.74,0-.33,0-.65-.01-.98,0-.24-.07-.49-.07-.73-.01-.39-.05-.79-.21-1.15-.09-.22-.28-.42-.43-.61-.3-.37-.65-.71-1-1.04-.3-.27-.61-.53-.93-.77l-.03-.02c-.14-.11-.27-.2-.43-.26-.22-.08-.38-.23-.59-.33-.28-.14-.59-.23-.88-.36-.6-.26-1.19-.54-1.76-.86-.03-.01-.05-.03-.08-.04v-2.62c.54,.31,1.04,.69,1.48,1.12,.37,.36,.7,.75,1,1.17,.19,.27,.37,.56,.53,.86,.02,.03,.03,.06,.05,.09,.13,.2,.29,.36,.45,.54,.14,.16,.3,.3,.46,.44,.27,.22,.57,.43,.83,.66,.29,.26,.57,.53,.83,.81,.14,.15,.27,.31,.4,.47,.08,.1,.32,.34,.34,.47-.03-.35,0-.8-.15-1.12-.15-.32-.05-.63-.1-.97-.06-.4-.12-.79-.19-1.19-.08-.46-.17-.91-.25-1.37-.03-.17-.06-.3-.12-.46-.06-.19-.05-.41-.1-.59-.1-.33-.08-.68-.2-1.01-.05-.13-.06-.26-.09-.39-.03-.19-.13-.4-.13-.59,0-.35,.03-.65-.12-.99-.11-.25-.14-.52-.34-.72-.13-.13-.27-.26-.4-.38-.25-.22-.52-.43-.79-.63-.46-.33-.95-.63-1.5-.8-.29-.09-.58-.19-.86-.31-.35-.15-.69-.32-1.02-.51v-1.76c.25,.21,.49,.44,.71,.69h-.04Z"/><path class="cls-2" d="M50.66,38.64c.12-.33,.21-.69,.35-1.01,.26-.62,.7-1.15,1.28-1.49,.58-.35,1.14-.74,1.73-1.06,.29-.16,.59-.3,.91-.39,.24-.07,.35,.03,.23,.29-.08,.16-.2,.31-.31,.45-.34,.46-.67,.83-.87,1.38-.1,.27-.2,.54-.27,.83-.06,.25-.06,.49-.12,.74-.14,.56-.52,1.01-.89,1.44-.41,.47-.78,.89-1.27,1.29-.24,.2-.52,.38-.75,.59-.17,.16-.28,.34-.47,.48-.14,.1-.24,.22-.35,.37l-.02,.03c-.24,.32-.47,.66-.68,1-.25,.41-.49,.83-.67,1.28-.09,.21-.22,.47-.25,.7-.07,.53-.05,1.05,.12,1.56,.07,.23,.07,.49,.11,.73,.05,.29,.19,.53,.25,.82,.09,.4,.23,.78,.35,1.17,.14,.45,.23,.92,.35,1.38,.13,.47,.27,.94,.31,1.43,.04,.52,.08,1.03,.16,1.55,.08,.51,.04,1.16-.09,1.66-.08,.3-.03,1.14-.44,1.22-.86,.15-.37-1.21-.31-1.57,.06-.34,.03-.68,.1-1.02,.17-.83-.02-1.65-.15-2.46-.11-.73-.28-1.4-.48-2.1-.11-.4-.24-.8-.35-1.2-.12-.43-.17-.86-.25-1.29-.15-.75-.28-1.5-.37-2.26-.03-.25-.1-.51-.14-.76-.05-.24-.18-.51-.4-.62-.32-.17-.74-.32-1.09-.38-.39-.07-.8,0-1.2-.03-.23-.02-.4-.03-.63-.02-.56,.02-1.12,.01-1.68-.03-.61-.05-1.17-.05-1.74-.3-.57-.25-1.09-.58-1.62-.9-.38-.23-.75-.37-1-.74-.26-.38-.51-.72-.68-1.14-.06-.14-.11-.29-.16-.44-.04-.13-.09-.45,.15-.31,.16,.09,.21,.3,.34,.42,.1,.09,.2,.11,.32,.16,.33,.13,.58,.35,.93,.43,.7,.17,1.44,.05,2.13,.24,.44,.12,.86,.25,1.29,.4,.37,.13,.52,.4,.76,.69,.26,.32,.81,.41,1.16,.6,.39,.21,.79,.44,1.23,.54,.23,.05,.46,.1,.68,.16,.37,.1,.74,.22,1.09,.4-.19-1.3-.31-2.55-.43-3.75-.04-.37-.07-.75-.11-1.12-.03-.31-.02-.63-.2-.9-.04-.06-.1-.13-.17-.18-.11-.1-.24-.18-.34-.26-.32-.25-.67-.46-1.04-.64-.29-.14-.58-.27-.88-.37-.1-.03-.35-.16-.46-.14-.75,.17-1.57,.07-2.31-.09-.29-.06-.6-.19-.88-.29-.51-.18-.86-.56-1.33-.77-.48-.21-1-.31-1.49-.49-.39-.14-.79-.36-1.1-.62-.13-.11-.67-.26-.38-.45,.27-.18,.53-.11,.82-.11,.36,0,.73-.1,1.09-.11,.48,0,.98-.05,1.45,.03,.48,.08,1.12,.21,1.53,.48,.39,.25,.71,.6,1.09,.87,.24,.17,.51,.26,.73,.44,.72,.59,1.55,.92,2.36,1.34,.49,.25,.95,.56,1.36,.93-.07-.07-.08-.48-.08-.58,0-.25,.02-.5-.04-.75-.06-.24-.14-.48-.18-.73-.1-.55-.21-1.1-.35-1.64-.11-.43-.19-.91-.39-1.31-.15-.3-.42-.56-.69-.74-.32-.21-.65-.39-.99-.57-.33-.17-.67-.34-1.02-.47-.31-.11-.66-.27-.98-.33-.38-.07-.75-.1-1.14-.21-.85-.24-1.68-.58-2.42-1.08-.39-.26-.75-.57-1.05-.93-.32-.38-.85-.74-.95-1.26,.33-.07,.57,.2,.85,.31,1,.37,2.02,.6,2.98,1.07,.46,.23,.91,.5,1.32,.82,.46,.37,.76,.84,1.27,1.16,.26,.17,.6,.25,.88,.39,.56,.27,1.12,.57,1.63,.94-.22-.16-.31-.57-.36-.82-.09-.4-.29-.79-.52-1.12-.22-.31-.33-.67-.54-.98-.19-.28-.39-.55-.58-.83-.5-.73-1.05-1.42-1.64-2.08-.37-.42-.7-.88-1.12-1.24-.47-.41-.98-.44-1.54-.66-.31-.13-.64-.17-.95-.32-.59-.28-1.08-.72-1.47-1.24-.16-.22-.4-.46-.52-.71-.15-.33-.2-.69-.39-1s-.34-.66-.47-1.01c-.08-.21-.31-.41-.24-.65,.03-.12,.66,.41,.69,.45,.23,.23,.45,.48,.77,.57,.48,.14,.95,.46,1.36,.72,.5,.32,1,.66,1.4,1.09,.23,.25,.47,.53,.67,.81,.26,.35,.34,.82,.58,1.2,.13,.2,.31,.36,.45,.55,.16,.22,.32,.43,.5,.62,.32,.34,.64,.7,.94,1.06,.54,.65,1.05,1.33,1.52,2.04,.21,.33,.42,.66,.61,1,.09,.16,.19,.33,.27,.5,.08,.15,.22,.3,.24,.47,.15-.35,.25-.72,.4-1.07,.15-.36,.38-.66,.41-1.06,.03-.37-.08-.54-.25-.84-.4-.69-.42-1.74-.25-2.5,.11-.5,.26-.98,.34-1.48,.06-.4,.12-.85,.31-1.21,.15-.28,.41-.53,.52-.83,0,0,.03-.06,.02-.07,.26,.2,.19,.97,.22,1.27,.04,.38,.08,.76,.13,1.15,.07,.55,.18,1.09,.16,1.64-.02,.61-.16,1.22-.3,1.81-.08,.35-.2,.7-.38,1-.21,.37-.41,.67-.55,1.07-.11,.32-.22,.63-.34,.95-.1,.26-.12,.54-.1,.81,.03,.37,.25,.67,.39,1,.17,.4,.34,.78,.42,1.21,.05,.32,.15,.63,.23,.94,.17,.67,.3,1.34,.42,2.02-.03-.19,.16-.39,.27-.52,.14-.17,.24-.36,.37-.54,.17-.23,.33-.48,.55-.68,.16-.15,.38-.24,.49-.43,.09-.14,.13-.29,.23-.43,.29-.39,.37-.83,.48-1.29,.06-.23,.13-.45,.12-.69-.02-.24,0-.47,.04-.71,.12-.59,.43-1.18,.83-1.62,.39-.43,.9-.73,1.35-1.09,.31-.25,.61-.52,.9-.79,.15-.14,.48-.52,.5-.14,.02,.26-.08,.52-.13,.77-.05,.24-.03,.48-.16,.69-.29,.48-.44,1.01-.66,1.54-.11,.27-.25,.51-.38,.76-.15,.3-.18,.64-.34,.94-.1,.2-.2,.41-.33,.59-.37,.5-.95,.77-1.45,1.11-.58,.4-1.06,.8-1.5,1.36-.21,.26-.4,.54-.58,.82-.1,.16-.19,.32-.28,.48-.17,.31-.12,.71-.06,1.04,.08,.43,.08,.9,.13,1.34,0,.14,.04,.27,.03,.4-.02,.35,.09,.68,.09,1.03,0,.19,.07,.4,.06,.6,0,.17,0,.3,0,.47,.06,.46,.09,.92,.14,1.39,.05,.4,.1,.8,.15,1.19,.05,.34,.22,.61,.18,.96-.05,.35,.1,.78,.17,1.12-.03-.13,.14-.42,.19-.54,.08-.19,.16-.38,.25-.56,.17-.35,.36-.68,.57-1.01,.19-.3,.41-.58,.61-.87,.25-.36,.37-.75,.53-1.15,.14-.33,.18-.68,.3-1.01,.09-.27,.16-.47,.14-.76-.02-.28,0-.53,.11-.8h.03Z"/><path class="cls-2" d="M72.88,24.67c-.13,.43-.45,.67-.74,1-.41,.47-.81,.94-1.28,1.34-.47,.41-1,.57-1.58,.8-.52,.21-1.05,.38-1.59,.52-.23,.06-.39,.12-.59,.2-.37,.15-.78,.2-1.14,.38-.32,.16-.68,.43-.94,.68-.18,.18-.23,.47-.2,.72,.03,.25,.04,.52,.09,.77,.14,.75,.24,1.51,.31,2.27,.04,.44,.12,.86,.14,1.3,.01,.42,0,.83,.02,1.25,.02,.73,.06,1.42,.16,2.15,.12,.81,.18,1.66,.58,2.4,.16,.3,.24,.64,.39,.94,.16,.33,1.03,1.49,.17,1.59-.41,.05-.61-.77-.78-1.03-.27-.44-.5-1.05-.58-1.56-.08-.52-.19-1.02-.31-1.53-.11-.48-.11-.97-.13-1.46-.02-.47-.07-.94-.07-1.42,0-.41,.02-.82-.01-1.22-.02-.29,.04-.56,0-.85-.03-.24-.11-.49-.11-.74,0-.54-.13-1.05-.35-1.53-.1-.21-.29-.42-.44-.6-.31-.37-.66-.7-1.02-1.02-.3-.27-.62-.52-.94-.76l-.03-.02c-.15-.11-.27-.19-.44-.25-.22-.08-.38-.22-.59-.32-.28-.13-.59-.22-.89-.34-.58-.24-1.06-.53-1.59-.86-.48-.3-.97-.62-1.28-1.11-.13-.21-.2-.45-.33-.67-.15-.25-.32-.48-.5-.71-.36-.47-.78-.72-1.24-1.06-.14-.1-.31-.21-.43-.34-.19-.21-.11-.34,.14-.34,.33,0,.66,.04,.99,.1,.67,.13,1.31,.34,1.97,.5s1.23,.53,1.67,1.05c.23,.27,.42,.58,.63,.86,.18,.23,.27,.46,.34,.73,.07,.28,.19,.46,.36,.68,.21,.28,.35,.61,.58,.88,.28,.33,.51,.67,.85,.94,.28,.22,.57,.42,.84,.65,.29,.25,.58,.51,.84,.8,.14,.15,.28,.3,.41,.46,.08,.1,.33,.33,.34,.46-.04-.35-.02-.8-.17-1.12s-.06-.63-.11-.97c-.06-.4-.13-.79-.21-1.19-.08-.46-.19-.91-.27-1.37-.03-.17-.07-.3-.12-.46-.06-.19-.06-.41-.11-.59-.1-.33-.09-.68-.22-1.01-.05-.13-.07-.26-.09-.39-.09-.44-.22-.88-.27-1.32-.04-.33-.12-.72-.37-.97-.13-.13-.27-.26-.41-.38-.26-.22-.52-.42-.8-.61-.58-.41-1.16-.65-1.83-.86-.58-.18-1.21-.26-1.71-.63-.18-.13-.33-.31-.49-.46-.24-.24-.37-.55-.6-.8-.2-.21-.4-.39-.59-.62-.36-.44-.66-.9-1.08-1.28-.19-.16-.24-.4-.36-.61-.13-.23-.29-.44-.35-.7-.09-.38,.34-.11,.52-.02,.36,.17,.72,.35,1.09,.49,.54,.21,1.12,.35,1.61,.64,.52,.3,.99,.77,1.27,1.3,.12,.22,.19,.43,.25,.67,.05,.24,.19,.42,.31,.62,.25,.41,.45,.8,.84,1.09,.14,.1,.22,.23,.35,.34,.17,.15,.4,.17,.6,.27,.26,.13,.49,.32,.72,.49,.18,.13,.33,.28,.51,.41,.14,.09,.38,.23,.41,.41-.09-.68-.16-1.37-.2-2.05-.02-.32,0-.65-.05-.97-.06-.44,0-.85,.04-1.28,.03-.36,.16-.71,.08-1.07-.06-.27-.17-.53-.33-.75-.2-.27-.41-.54-.6-.81-.25-.34-.53-.57-.84-.86-.26-.24-.47-.54-.65-.85-.31-.53-.62-1.06-.82-1.64-.18-.52-.23-1.08-.33-1.62-.07-.38-.15-.76-.22-1.13-.06-.3-.35-1.02-.16-1.28,0,.02,.03,.05,.04,.06,.2,.26,.52,.41,.74,.64,.29,.29,.48,.7,.65,1.06,.22,.46,.5,.88,.76,1.32,.39,.67,.67,1.69,.5,2.46-.08,.33-.14,.53,0,.87,.15,.37,.46,.59,.71,.89,.24,.3,.45,.62,.7,.91-.03-.17,.06-.36,.09-.52,.04-.19,.07-.37,.12-.56,.09-.38,.18-.76,.29-1.14,.23-.81,.52-1.61,.85-2.4,.18-.44,.38-.86,.58-1.29,.12-.24,.21-.49,.3-.74,.08-.23,.2-.43,.26-.66,.12-.43,.05-.9,.2-1.31,.11-.32,.26-.67,.41-.97,.26-.54,.64-1,1.02-1.46,.31-.37,.67-.82,1.09-1.09,.28-.18,.42-.49,.57-.77,.03-.05,.47-.73,.53-.63,.13,.21-.03,.48-.04,.7-.02,.37-.07,.74-.15,1.1-.09,.36-.03,.71-.08,1.07-.04,.27-.19,.57-.29,.83-.22,.61-.57,1.17-1.04,1.61-.25,.23-.55,.37-.81,.58-.47,.38-.95,.56-1.28,1.09-.3,.48-.47,1.01-.7,1.52-.36,.8-.69,1.63-.95,2.47-.1,.32-.21,.64-.31,.96-.11,.36-.11,.74-.22,1.1-.13,.39-.2,.82-.17,1.23,.02,.25,.05,.68-.11,.89,.38-.5,.82-.95,1.28-1.37,.23-.21,.53-.39,.73-.63,.39-.46,.54-1,.87-1.49,.29-.43,.64-.82,1.02-1.17,.78-.73,1.69-1.26,2.53-1.9,.24-.18,.38-.51,.72-.55,.06,.52-.34,1.02-.53,1.48-.18,.43-.44,.83-.73,1.2-.56,.69-1.25,1.26-1.99,1.74-.33,.22-.68,.36-1.02,.54-.29,.15-.57,.4-.84,.6-.3,.22-.57,.48-.84,.75s-.54,.54-.78,.84c-.21,.26-.39,.58-.44,.91-.07,.44,0,.93,0,1.37,.03,.56,.08,1.12,.15,1.67,.03,.25,.03,.5,.04,.75,0,.25,.12,.49,.18,.73,.02,.1,.14,.5,.09,.58,.29-.47,.63-.9,1.03-1.29,.66-.64,1.35-1.2,1.86-1.98,.16-.24,.4-.41,.57-.63,.29-.37,.49-.8,.79-1.16,.32-.38,.88-.7,1.32-.91,.43-.21,.92-.31,1.37-.45,.35-.11,.73-.12,1.08-.22,.28-.08,.5-.23,.82-.14,.33,.09-.14,.39-.23,.54-.22,.34-.54,.67-.87,.92-.42,.32-.88,.57-1.28,.91s-.62,.81-1.05,1.13c-.24,.18-.5,.39-.75,.54-.66,.38-1.42,.71-2.18,.77-.11,0-.31,.2-.4,.27-.26,.19-.5,.39-.73,.61-.29,.28-.56,.59-.8,.92-.07,.11-.17,.23-.25,.35-.05,.08-.09,.15-.11,.23-.09,.31,0,.62,.07,.92,.07,.37,.15,.74,.23,1.11,.24,1.19,.49,2.42,.7,3.71,.29-.28,.6-.5,.93-.7l.6-.36c.39-.23,.7-.56,1.01-.88,.28-.29,.78-.53,.93-.92,.14-.34,.2-.64,.52-.88,.36-.27,.73-.52,1.11-.76,.61-.39,1.35-.5,1.97-.86,.31-.18,.49-.47,.76-.69,.1-.08,.19-.13,.26-.25,.09-.16,.08-.36,.2-.5,.18-.2,.23,.12,.23,.25,0,.15,0,.31-.02,.47-.05,.45-.18,.85-.32,1.29l-.02,.03Z"/><path class="cls-2" d="M34.61,73.12c.07-.14,.15-.28,.23-.4,.19-.3,.47-.55,.74-.79,.69-.62,1.48-1.13,2.3-1.57,.57-.31,1.16-.6,1.76-.86,.29-.12,.6-.22,.88-.36,.21-.1,.37-.25,.59-.33,.17-.06,.29-.15,.43-.26l.03-.02c.32-.24,.63-.5,.93-.77,.36-.32,.7-.66,1-1.04,.15-.18,.34-.39,.43-.61,.16-.36,.2-.76,.21-1.15,0-.24,.06-.49,.07-.73,0-.33,0-.65,0-.98,.02-.58-.03-1.16-.05-1.74-.02-.5-.17-.99-.2-1.49-.03-.56-.2-1.1-.36-1.64-.11-.38-.28-.74-.37-1.12-.08-.35-.2-.73-.32-1.06-.04-.1-.1-.19-.14-.29-.06-.19-.06-.36-.15-.53-.08-.15-.19-.32-.02-.48,.09-.09,.5-.09,.61-.02,.2,.11,.24,.63,.3,.83,.18,.67,.35,1.35,.49,2.03,.28,1.36,.48,2.74,.57,4.13,.04,.62,.06,1.25,.06,1.87,0,.27-.05,.53-.04,.79,0,.27,.12,.48,.08,.76-.03,.22-.12,.39-.14,.61-.02,.27-.02,.54-.05,.81,0,.14-.04,.3-.06,.47-.04,.36-.04,.75,.2,.98,.22,.21,.5,.39,.76,.54,.04,.02,.08,.04,.11,.07,.4,.23,.8,.25,1.22,.42,.21,.08,.37,.14,.6,.19,.64,.16,1.27,.36,1.88,.61,1.65,.67,3.2,1.72,4.2,3.23,.09,.14,.17,.29,.26,.43,.05,.08,.18,.22,.27,.37h-.82c-.07-.05-.12-.1-.15-.12-.33-.22-.77-.35-1.13-.52-.37-.18-.74-.36-1.1-.55-.86-.45-1.7-.94-2.49-1.5-.39-.27-.77-.57-1.12-.88-.41-.37-.78-.82-1.28-1.09-.21-.12-.41-.23-.61-.35-.33-.2-.65-.41-.94-.69-.18,1.3-.41,2.53-.63,3.72l-.21,1.11c-.05,.28-.14,.57-.07,.86h-.54c.02-.17,.09-.34,.12-.5,.02-.13,.04-.26,.09-.39,.12-.33,.11-.68,.2-1.01,.05-.18,.04-.4,.1-.59,.05-.16,.09-.29,.12-.46,.07-.46,.17-.91,.25-1.37,.07-.4,.13-.79,.19-1.19,.05-.34-.05-.65,.1-.97,.14-.32,.12-.77,.15-1.12,0,.13-.25,.37-.34,.47-.13,.16-.26,.32-.4,.47-.26,.29-.54,.55-.83,.81-.27,.24-.56,.44-.83,.66-.16,.13-.32,.28-.46,.44-.16,.18-.32,.34-.45,.54-.02,.03-.04,.06-.05,.09-.16,.3-.33,.58-.53,.86-.3,.42-.63,.82-1,1.17-.61,.59-1.31,1.07-2.08,1.43-.54,.25-1.11,.44-1.69,.55-.18,.03-.36,.07-.53,.11h-.91c.06-.18,.24-.39,.31-.48,.09-.13,.17-.26,.24-.4h0Z"/><path class="cls-2" d="M62.46,62.14c.09,.4,.29,.79,.52,1.12,.22,.31,.33,.67,.54,.98,.19,.28,.39,.55,.58,.83,.5,.73,1.05,1.42,1.64,2.08,.37,.42,.7,.88,1.12,1.24,.47,.41,.98,.44,1.54,.66,.31,.13,.64,.17,.95,.32,.59,.28,1.08,.72,1.47,1.24,.16,.22,.4,.46,.52,.71,.15,.33,.2,.69,.39,1s.34,.66,.47,1.01c.08,.21,.31,.41,.24,.65-.03,.12-.65-.41-.69-.45-.23-.23-.45-.48-.77-.57-.48-.14-.95-.46-1.36-.72-.5-.32-1-.66-1.4-1.09-.23-.25-.47-.53-.68-.81-.26-.35-.34-.82-.58-1.2-.13-.2-.31-.36-.45-.55-.16-.22-.32-.43-.5-.62-.32-.34-.64-.7-.94-1.06-.54-.65-1.05-1.33-1.52-2.04-.21-.33-.42-.66-.61-1-.09-.16-.19-.33-.27-.5-.08-.15-.23-.3-.24-.47-.15,.35-.25,.72-.4,1.07-.15,.36-.38,.66-.41,1.06-.03,.37,.08,.54,.25,.84,.4,.69,.42,1.74,.25,2.5-.11,.5-.26,.97-.34,1.48-.06,.4-.12,.85-.31,1.21-.15,.28-.41,.53-.52,.83,0,0-.03,.06-.02,.07-.26-.2-.19-.97-.22-1.27-.04-.38-.08-.76-.13-1.15-.07-.55-.18-1.09-.16-1.64,.02-.61,.16-1.22,.3-1.81,.08-.35,.2-.7,.38-1.01,.21-.37,.41-.67,.55-1.07,.11-.32,.22-.63,.34-.95,.1-.26,.12-.54,.1-.81-.03-.37-.25-.67-.39-1-.17-.4-.34-.78-.42-1.21-.05-.32-.15-.63-.23-.94-.17-.67-.3-1.34-.42-2.02,.03,.19-.16,.39-.27,.52-.14,.17-.24,.37-.37,.54-.17,.23-.33,.48-.55,.68-.16,.15-.38,.24-.49,.43-.09,.14-.13,.29-.23,.43-.28,.39-.37,.83-.48,1.29-.06,.23-.13,.45-.12,.69,.02,.24,0,.47-.04,.71-.12,.59-.43,1.18-.83,1.62-.39,.43-.9,.73-1.35,1.09-.31,.25-.61,.52-.9,.79-.15,.14-.48,.52-.5,.13-.02-.26,.08-.52,.13-.77,.05-.24,.03-.48,.16-.69,.29-.48,.44-1.01,.66-1.54,.11-.27,.25-.51,.38-.76,.15-.3,.18-.64,.34-.94,.1-.2,.2-.41,.33-.59,.37-.5,.95-.77,1.45-1.11,.58-.4,1.06-.8,1.5-1.36,.21-.26,.4-.54,.58-.82,.1-.16,.19-.32,.28-.48,.17-.31,.12-.71,.06-1.04-.08-.44-.08-.9-.13-1.34,0-.14-.04-.27-.03-.4,.02-.35-.09-.68-.09-1.03,0-.19-.07-.4-.06-.6,0-.17,0-.3-.02-.47-.06-.46-.09-.92-.14-1.39-.05-.4-.1-.8-.15-1.19-.05-.34-.22-.61-.17-.96,.05-.35-.1-.78-.17-1.12,.03,.13-.14,.42-.19,.54-.08,.19-.16,.38-.25,.56-.17,.35-.36,.68-.57,1.01-.19,.3-.41,.58-.61,.87-.25,.36-.37,.75-.53,1.15-.14,.33-.18,.68-.3,1.01-.09,.27-.16,.47-.14,.76,.02,.28,0,.53-.11,.8-.12,.33-.21,.69-.35,1.01-.26,.62-.7,1.15-1.28,1.49-.58,.35-1.13,.74-1.73,1.06-.29,.16-.59,.3-.91,.39-.24,.07-.35-.03-.23-.29,.08-.16,.2-.31,.31-.45,.34-.46,.67-.83,.87-1.38,.1-.27,.2-.54,.27-.83,.06-.25,.06-.49,.12-.74,.14-.56,.52-1.01,.89-1.44,.41-.47,.78-.89,1.27-1.29,.24-.2,.51-.38,.75-.59,.17-.16,.28-.34,.47-.48,.14-.1,.24-.22,.35-.37l.02-.03c.24-.32,.47-.66,.68-1,.25-.41,.49-.83,.67-1.28,.09-.21,.22-.47,.25-.7,.07-.53,.05-1.05-.12-1.56-.07-.23-.07-.49-.11-.73-.05-.29-.19-.53-.25-.82-.09-.4-.23-.78-.35-1.17-.14-.45-.23-.92-.35-1.38-.13-.47-.27-.94-.31-1.43-.04-.52-.08-1.03-.16-1.55-.08-.51-.04-1.16,.09-1.66,.08-.3,.03-1.14,.44-1.22,.86-.15,.37,1.21,.31,1.57-.06,.34-.03,.68-.1,1.02-.17,.83,.02,1.65,.15,2.46,.11,.73,.28,1.4,.48,2.1,.11,.4,.24,.8,.35,1.2,.12,.43,.17,.86,.25,1.29,.15,.75,.28,1.5,.37,2.26,.03,.25,.09,.51,.14,.76,.05,.24,.18,.51,.4,.62,.32,.17,.74,.32,1.09,.38,.39,.07,.8,0,1.2,.03,.23,.02,.4,.03,.63,.02,.56-.02,1.12-.01,1.68,.03,.61,.05,1.17,.05,1.74,.3s1.09,.58,1.62,.9c.38,.23,.75,.37,1,.74,.26,.38,.51,.72,.68,1.14,.06,.14,.11,.29,.16,.44,.04,.13,.09,.45-.15,.31-.16-.09-.21-.3-.34-.42-.1-.09-.2-.11-.32-.16-.33-.13-.58-.35-.93-.43-.7-.17-1.44-.05-2.13-.24-.44-.12-.86-.25-1.29-.4-.37-.13-.52-.4-.76-.69-.26-.32-.81-.41-1.16-.6-.39-.21-.79-.44-1.23-.54-.23-.05-.46-.1-.68-.16-.37-.1-.74-.22-1.09-.4,.19,1.3,.31,2.55,.43,3.75,.04,.37,.07,.75,.11,1.12,.03,.31,.02,.63,.2,.9,.04,.06,.1,.13,.17,.18,.11,.1,.24,.18,.34,.26,.32,.25,.67,.46,1.04,.64,.29,.14,.58,.27,.88,.37,.1,.03,.35,.16,.46,.14,.75-.17,1.57-.07,2.31,.09,.29,.06,.6,.19,.88,.29,.51,.18,.86,.56,1.33,.77,.48,.21,1,.31,1.49,.49,.39,.14,.79,.36,1.1,.62,.13,.11,.67,.26,.38,.45-.27,.18-.53,.11-.82,.11-.36,0-.73,.1-1.09,.11-.48,0-.98,.05-1.45-.03-.48-.08-1.12-.21-1.53-.48-.39-.25-.71-.6-1.09-.87-.24-.17-.51-.26-.73-.44-.72-.59-1.55-.92-2.36-1.34-.49-.25-.95-.56-1.36-.93,.07,.07,.08,.48,.08,.58,0,.25-.02,.5,.04,.75,.06,.24,.14,.48,.18,.73,.1,.55,.21,1.1,.35,1.64,.11,.43,.19,.91,.39,1.31,.15,.3,.42,.56,.69,.74,.32,.21,.65,.39,.99,.57,.33,.17,.67,.34,1.02,.47,.31,.11,.66,.27,.98,.33,.38,.07,.75,.1,1.14,.21,.85,.24,1.68,.58,2.42,1.08,.39,.26,.75,.57,1.05,.93,.32,.38,.85,.74,.95,1.26-.33,.07-.57-.2-.85-.31-1-.37-2.02-.6-2.98-1.07-.46-.23-.91-.5-1.32-.82-.46-.37-.76-.84-1.27-1.16-.26-.17-.6-.25-.88-.39-.56-.27-1.12-.57-1.63-.94,.22,.16,.31,.57,.36,.82l-.02,.02Z"/><path class="cls-2" d="M71.58,34.51c-.07-.1-.13-.19-.18-.29-.17-.3-.32-.62-.43-.95-.12-.35-.33-.67-.47-1.01-.03-.08-.1-.18,0-.24,.21-.13,.82,.62,.95,.74l.96,.84c.52,.46,1.08,.86,1.6,1.31v1.76c-.21-.12-.42-.25-.62-.39-.7-.48-1.33-1.06-1.8-1.77h0Z"/><path class="cls-2" d="M54.01,.32c-.07,.18-.3,.1-.53-.05-.14-.09-.27-.19-.38-.27h.82c.07,.12,.12,.23,.09,.32Z"/><path class="cls-2" d="M11.18,2.23c-.07,.44-.25,.81-.42,1.21-.14,.33-.36,.63-.39,1-.02,.27,0,.55,.1,.81,.12,.32,.23,.63,.34,.95,.14,.4,.34,.7,.55,1.07,.18,.31,.29,.66,.38,1,.14,.6,.28,1.2,.3,1.81,.02,.55-.1,1.1-.16,1.64-.05,.38-.08,.76-.13,1.15-.03,.3,.04,1.07-.22,1.27,.02,0-.01-.06-.02-.07-.11-.3-.37-.55-.52-.83-.19-.36-.25-.81-.31-1.21-.07-.51-.22-.98-.34-1.48-.17-.76-.15-1.81,.25-2.5,.17-.3,.29-.47,.25-.84-.04-.4-.27-.7-.41-1.06-.14-.35-.25-.72-.4-1.07-.02,.17-.16,.32-.24,.47-.09,.17-.18,.33-.27,.5-.19,.34-.4,.68-.61,1-.46,.71-.97,1.39-1.52,2.04-.3,.36-.62,.71-.94,1.06-.18,.2-.35,.4-.5,.62-.14,.19-.32,.36-.45,.55-.24,.37-.32,.85-.58,1.2-.2,.28-.44,.56-.68,.81-.41,.43-.91,.77-1.4,1.09-.41,.26-.88,.58-1.36,.72-.32,.09-.54,.34-.77,.57-.04,.04-.66,.56-.69,.45-.06-.24,.17-.45,.24-.65,.13-.35,.28-.69,.47-1.01,.19-.32,.24-.67,.39-1,.11-.24,.35-.49,.52-.71,.39-.52,.89-.95,1.47-1.24,.31-.15,.63-.19,.95-.32,.56-.22,1.07-.25,1.54-.66,.42-.37,.75-.83,1.12-1.24,.58-.66,1.14-1.35,1.64-2.08,.19-.28,.39-.55,.58-.83,.21-.31,.32-.67,.54-.98,.23-.33,.44-.72,.52-1.12,.05-.25,.15-.66,.36-.82-.51,.37-1.06,.67-1.63,.94-.28,.13-.62,.22-.88,.39-.51,.33-.81,.79-1.27,1.16-.41,.32-.85,.59-1.32,.82-.96,.47-1.99,.7-2.98,1.07-.28,.11-.52,.38-.85,.31,.09-.52,.63-.88,.95-1.26,.3-.36,.67-.67,1.05-.93,.74-.49,1.57-.83,2.42-1.08,.38-.11,.75-.14,1.14-.21,.32-.06,.67-.22,.98-.33,.35-.12,.69-.29,1.02-.46,.34-.18,.68-.36,.99-.57,.27-.18,.54-.44,.69-.74,.2-.4,.28-.88,.39-1.31,.11-.43,.2-.87,.29-1.31h.35c-.08,.43-.18,.86-.28,1.29-.08,.31-.18,.62-.23,.94h-.01Z"/><path class="cls-2" d="M71.05,42.39c-.08-.13-.15-.27-.23-.4-.07-.14-.15-.27-.24-.4s-.45-.53-.28-.7c.09-.09,.48,.1,.58,.13,.27,.09,.56,.15,.84,.2,.58,.11,1.15,.3,1.69,.55,.2,.09,.4,.2,.59,.31v2.62c-.79-.43-1.55-.92-2.22-1.52-.26-.24-.54-.49-.73-.79Z"/><path class="cls-2" d="M43.51,.28c.08,.12,.18,.24,.26,.35,.24,.33,.52,.63,.82,.9,.23,.22,.48,.42,.75,.6,.09,.06,.29,.25,.4,.26,.78,.04,1.56,.41,2.24,.76,.91,.47,1.75,1.05,2.55,1.68,.27,.22,.52,.47,.79,.7,.22,.19,.55,.34,.72,.57,.11,.14,.2,.38-.02,.44-.14,.03-.4-.08-.54-.11-.19-.04-.38-.09-.57-.14-.72-.21-1.46-.4-2.15-.71-1.04-.47-1.95-1.16-2.68-2.04-.28-.34-.44-.77-.8-1.01-.36-.23-.69-.5-1-.79-.4-.38-.76-.8-1.05-1.27,.03,.05-.05,.31-.06,.37-.02,.14,.02,.27,.02,.42,0,.19-.08,.36-.14,.54-.08,.23-.08,.5-.11,.74-.06,.56-.1,1.11-.12,1.67-.02,.44-.07,.93,0,1.37,.06,.33,.25,.65,.46,.9,.24,.29,.52,.56,.8,.82,.27,.26,.54,.51,.85,.73,.27,.19,.56,.44,.85,.59,.35,.18,.69,.31,1.03,.52,.75,.47,1.45,1.03,2.02,1.71,.3,.36,.56,.76,.75,1.19,.2,.46,.61,.95,.56,1.47-.34-.03-.49-.35-.73-.53-.85-.63-1.78-1.14-2.57-1.86-.38-.35-.74-.73-1.04-1.15-.34-.48-.5-1.02-.9-1.47-.2-.23-.5-.41-.74-.62-.47-.41-.92-.86-1.3-1.35,.13,.16,.04,.38,.08,.57,.03,.15,.12,.29,.14,.44,.04,.33,0,.64,.07,.97,.08,.39,.17,.78,.28,1.16,.33,1.19,.78,2.35,1.31,3.47,.27,.57,.54,1.15,.87,1.69,.22,.35,.71,.63,1.07,.83,.26,.14,.5,.31,.73,.5,.68,.55,1.25,1.23,1.72,1.96,.24,.38,.41,.81,.62,1.21,.08,.16,.2,.29,.29,.44,.1,.19,.12,.4,.25,.59,.05,.07,.33,.59,.16,.64-.24,.07-.47-.25-.61-.4-.19-.2-.39-.41-.6-.58-.3-.24-.63-.42-.97-.6s-.58-.52-.88-.75c-.37-.28-.64-.68-.87-1.08-.14-.24-.33-.47-.44-.73-.07-.16-.12-.32-.17-.48-.12-.34-.23-.69-.37-1.03-.1-.25-.27-.51-.43-.73-.14-.18-.23-.41-.33-.61-.21-.42-.42-.85-.61-1.28-.34-.78-.64-1.57-.89-2.38-.11-.38-.22-.75-.31-1.14-.04-.18-.09-.37-.12-.56-.02-.08-.15-.47-.1-.53-.41,.54-.81,1.1-1.2,1.66-.41,.6-.41,1.13-.34,1.84,0,.1,.02,.19,.03,.29,.08,.87,.02,1.72-.23,2.56-.09,.31-.28,.55-.4,.84-.15,.37-.16,.85-.16,1.24,0,.17,0,.53-.27,.43-.02,0-.26-.53-.28-.6-.16-.38-.23-.8-.24-1.21,0-.45-.06-.92-.04-1.37,.03-.63,0-1.25,.24-1.84,.2-.47,.44-.92,.7-1.35,.13-.21,.26-.41,.39-.6,.13-.19,.2-.34,.35-.51,.15-.16,.26-.37,.38-.54,.19-.27,.39-.55,.59-.82,.16-.22,.27-.48,.32-.75,.07-.36-.06-.71-.1-1.07-.02-.19-.09-.37-.11-.56,0-.1,0-.19,0-.29,0-.09,0-.19,0-.28,.07-.37,.05-.74,.06-1.12,.02-.69,.08-1.37,.16-2.06-.02,.13-.42,.4-.52,.49-.17,.15-.34,.29-.52,.42-.3,.23-.62,.42-.93,.63-.3,.21-.62,.4-.9,.64l-.24,.21c-.23,.22-.44,.46-.65,.7-.12,.14-.26,.25-.38,.39-.7,.77-1.54,1.33-2.31,2l-.96,.84c-.14,.12-.74,.86-.95,.74-.1-.06-.03-.16,0-.24,.14-.34,.35-.65,.47-1.01,.11-.33,.26-.64,.43-.94,.06-.1,.12-.2,.18-.29,.47-.71,1.1-1.29,1.8-1.77,.52-.35,1.07-.65,1.64-.89,.28-.12,.57-.22,.86-.31,.55-.17,1.03-.47,1.5-.8,.27-.2,.54-.4,.79-.63,.14-.12,.28-.25,.4-.38,.2-.2,.23-.47,.34-.72,.15-.34,.12-.64,.12-.99V.01h.54s0,.04,0,.06c.02,.07,.06,.15,.11,.22h.05Z"/><path class="cls-2" d="M14.52,1.79c.5,.34,1.08,.61,1.45,1.11,.13,.18,.23,.39,.33,.59,.16,.3,.19,.64,.34,.94,.13,.26,.27,.5,.38,.76,.21,.52,.36,1.06,.66,1.54,.13,.21,.11,.46,.16,.69,.05,.25,.15,.51,.13,.77-.03,.39-.36,0-.5-.14-.29-.27-.59-.54-.9-.79-.45-.36-.96-.66-1.35-1.09-.4-.44-.72-1.03-.83-1.62-.05-.24-.06-.47-.04-.71s-.06-.45-.12-.69c-.12-.46-.2-.9-.48-1.29-.1-.14-.14-.29-.23-.43-.12-.19-.33-.28-.49-.43-.21-.2-.37-.45-.55-.68-.08-.11-.15-.22-.22-.33h.45c.1,.15,.21,.29,.32,.43,.44,.56,.91,.96,1.5,1.36h0Z"/><path class="cls-2" d="M20.04,.25c-.22-.06-.43-.15-.63-.25h.88c.09,.23-.03,.31-.25,.25Z"/><path class="cls-2" d="M34.09,.22c-.06-.05-.05-.13-.02-.22h.91c-.1,.03-.21,.05-.31,.09-.11,.03-.5,.22-.58,.13Z"/><path class="cls-2" d="M25.72,1.31c-.16,.54-.33,1.08-.36,1.64-.03,.5-.18,.99-.2,1.49-.02,.58-.07,1.16-.05,1.74,0,.33,0,.65,.01,.98,0,.24,.06,.48,.07,.73,.01,.39,.05,.79,.21,1.15,.09,.22,.28,.42,.43,.61,.3,.37,.65,.71,1,1.04,.3,.27,.61,.53,.93,.77l.03,.02c.14,.11,.27,.2,.43,.26,.22,.08,.38,.23,.59,.33,.28,.14,.59,.23,.88,.36,.6,.26,1.19,.54,1.76,.86,.81,.44,1.61,.94,2.3,1.57,.26,.24,.54,.49,.73,.79,.08,.13,.15,.27,.23,.4,.07,.14,.15,.27,.24,.4s.45,.53,.28,.7c-.09,.09-.48-.1-.58-.13-.27-.09-.56-.15-.84-.2-.58-.11-1.15-.3-1.69-.55-.77-.36-1.47-.84-2.08-1.43-.37-.36-.7-.75-1-1.17-.19-.27-.37-.56-.53-.86-.02-.03-.03-.06-.05-.09-.13-.2-.29-.36-.45-.54-.14-.16-.3-.3-.46-.44-.27-.22-.57-.43-.83-.66-.29-.26-.57-.53-.83-.81-.14-.15-.27-.31-.4-.47-.08-.1-.32-.34-.33-.47,.03,.35,0,.8,.15,1.12s.05,.63,.1,.97c.06,.4,.12,.79,.19,1.19,.08,.46,.17,.91,.25,1.37,.03,.17,.07,.3,.12,.46,.06,.19,.05,.41,.1,.59,.1,.33,.08,.68,.2,1.01,.05,.13,.06,.26,.09,.39,.03,.19,.13,.4,.13,.59,0,.35-.03,.65,.12,.99,.11,.25,.14,.52,.34,.72,.13,.13,.27,.26,.4,.38,.25,.22,.52,.43,.79,.63,.46,.33,.95,.63,1.5,.8,.29,.09,.58,.19,.86,.31,.58,.24,1.13,.54,1.64,.89,.7,.48,1.33,1.06,1.8,1.77,.07,.1,.13,.19,.18,.29,.17,.3,.32,.62,.43,.95,.12,.35,.33,.67,.47,1.01,.03,.08,.1,.18,0,.24-.21,.13-.82-.62-.95-.74l-.96-.84c-.77-.67-1.61-1.23-2.31-2-.12-.14-.26-.26-.38-.39-.21-.23-.42-.47-.65-.69-.08-.07-.15-.14-.24-.21-.28-.23-.61-.42-.9-.64-.3-.22-.63-.41-.93-.63-.18-.13-.35-.28-.52-.42-.1-.09-.51-.36-.52-.49,.08,.68,.14,1.37,.16,2.06,.01,.37,0,.75,.06,1.12,.02,.09,0,.19,.01,.28,.01,.1,.02,.19,.01,.29-.02,.19-.09,.37-.11,.56-.04,.36-.17,.7-.1,1.07,.05,.27,.16,.53,.32,.75,.2,.27,.4,.54,.59,.82,.12,.17,.23,.38,.38,.54s.22,.32,.35,.5c.13,.2,.26,.4,.39,.61,.26,.43,.5,.88,.7,1.35,.25,.59,.21,1.21,.24,1.84,.02,.44-.03,.92-.04,1.37-.01,.41-.08,.83-.24,1.21-.03,.06-.26,.59-.28,.6-.28,.09-.27-.27-.27-.43,0-.4,0-.87-.16-1.24-.12-.29-.3-.54-.4-.84-.26-.84-.31-1.69-.23-2.56,0-.1,.02-.19,.03-.29,.08-.71,.07-1.24-.34-1.84-.39-.56-.78-1.12-1.2-1.66,.04,.06-.09,.45-.1,.53-.04,.19-.08,.37-.12,.56-.09,.38-.2,.76-.31,1.14-.25,.81-.55,1.61-.89,2.38-.19,.43-.39,.86-.61,1.28-.1,.2-.19,.43-.33,.61-.16,.22-.33,.48-.43,.73-.14,.34-.25,.69-.37,1.03-.06,.16-.1,.33-.17,.48-.11,.25-.3,.49-.44,.73-.23,.4-.5,.8-.87,1.08-.3,.23-.55,.56-.88,.75-.33,.18-.67,.37-.97,.6-.21,.17-.42,.38-.6,.58-.14,.15-.37,.47-.61,.4-.17-.05,.11-.57,.16-.64,.13-.18,.15-.4,.25-.59,.09-.15,.2-.28,.29-.44,.21-.4,.38-.83,.62-1.21,.47-.74,1.04-1.42,1.72-1.96,.23-.18,.47-.36,.73-.5,.36-.2,.85-.48,1.07-.83,.33-.53,.61-1.12,.87-1.69,.53-1.12,.98-2.28,1.31-3.47,.11-.38,.2-.77,.28-1.16,.07-.32,.03-.64,.07-.97,.02-.16,.11-.29,.14-.45,.04-.18-.05-.4,.08-.57-.39,.49-.83,.94-1.3,1.35-.23,.21-.53,.38-.74,.62-.4,.45-.55,.99-.9,1.47-.3,.42-.66,.81-1.04,1.15-.79,.72-1.71,1.23-2.57,1.86-.24,.18-.39,.5-.73,.53-.06-.53,.36-1.02,.56-1.47,.19-.43,.45-.83,.75-1.19,.57-.68,1.28-1.24,2.02-1.71,.34-.21,.68-.34,1.03-.52,.29-.15,.58-.39,.85-.59,.31-.22,.58-.47,.85-.73,.28-.26,.55-.53,.8-.82,.21-.25,.4-.57,.46-.9,.08-.44,.03-.93,.01-1.37-.02-.56-.06-1.12-.12-1.67-.03-.24-.03-.51-.11-.74-.06-.18-.15-.35-.14-.54,0-.14,.04-.27,.02-.42,0-.07-.09-.32-.06-.37-.29,.47-.65,.89-1.05,1.27-.31,.29-.64,.56-1,.79-.36,.24-.52,.67-.8,1.01-.73,.88-1.64,1.58-2.68,2.04-.69,.31-1.42,.5-2.15,.71-.19,.05-.38,.1-.57,.14-.14,.03-.4,.14-.54,.11-.22-.06-.13-.29-.02-.44,.17-.24,.5-.38,.72-.57,.26-.23,.51-.48,.79-.7,.8-.63,1.64-1.21,2.55-1.68,.68-.35,1.46-.71,2.24-.76,.11,0,.32-.2,.4-.26,.26-.18,.51-.39,.75-.6,.3-.28,.57-.58,.82-.9,.08-.1,.18-.22,.26-.35,.05-.07,.09-.15,.11-.22,.1-.31,0-.62-.06-.92l-.21-1.11c-.22-1.19-.45-2.42-.63-3.72-.29,.27-.61,.49-.94,.69-.2,.12-.4,.23-.61,.35-.49,.28-.87,.73-1.28,1.09-.35,.32-.73,.61-1.12,.88-.79,.56-1.63,1.05-2.49,1.5-.36,.19-.73,.37-1.1,.55-.36,.17-.8,.3-1.13,.52-.07,.05-.3,.25-.53,.39-.23,.15-.46,.23-.53,.05-.07-.2,.26-.54,.36-.69,.09-.14,.16-.29,.26-.43,1-1.51,2.55-2.55,4.2-3.23,.61-.25,1.24-.45,1.88-.61,.23-.06,.39-.11,.6-.19,.42-.16,.82-.19,1.22-.42,.04-.02,.07-.04,.11-.07,.27-.16,.55-.33,.76-.54,.24-.23,.24-.62,.2-.98-.02-.17-.04-.33-.06-.47-.03-.27-.03-.54-.05-.81-.02-.22-.11-.4-.14-.61-.03-.27,.07-.49,.08-.76,.01-.27-.04-.53-.04-.8,0-.62,.02-1.25,.06-1.87,.09-1.39,.28-2.77,.57-4.13,.05-.22,.09-.44,.14-.66h.66c-.02,.06-.03,.12-.05,.18-.09,.38-.25,.75-.37,1.12l.07,.02Z"/></g></g></g></pattern></defs><rect class="cls-4" x="-2.98" y="-4.11" width="187.96" height="239.22"/></svg>