<?xml version="1.0" encoding="UTF-8"?><svg id="Layer_1" xmlns="http://www.w3.org/2000/svg" viewBox="0 0 2000 500"><defs><style>.cls-1,.cls-2{fill:#495d48;}.cls-3{opacity:.28;}.cls-2{fill-rule:evenodd;}</style></defs><g class="cls-3"><g><g><path class="cls-1" d="M441.57,20.75c13.38-4.87,27.62-6.23,41.67-6.73,14.09-.51,28.21-.17,42.27,1.06,28.12,2.25,56.07,6.75,83.65,12.55,13.79,2.89,27.54,5.96,41.04,9.72l40.89,11.53,40.73,11.93,40.52,12.53c53.78,17.36,107.06,36.15,158.64,58.73,51.62,22.37,101.85,47.95,148.77,78.57,47.08,30.28,90.86,65.65,128.85,106.52,9.28,10.4,19.26,20.23,27.44,31.55l12.86,16.5,6.4,8.26c1.92,2.84,3.92,5.56,5.76,8.51,14.98,23.27,28.18,48.23,40.35,73.5,12.08,25.36,22.85,51.36,32.12,77.87,9.38,26.47,16.83,53.6,21.56,81.18,4.59,27.5,6.32,55.88,.06,83.07-3.36,13.46,1.65-.57-6.98,10.37-8.5,11.04,7.97,4.9,12.23-8.93,8.06-27.96,7.83-57.42,4.65-85.93-7.45-57.15-26.08-111.94-49.09-164.3-11.65-26.19-24.36-51.86-39.77-76.52-1.87-3.1-4-6.14-6.01-9.21l-6.47-8.67-13-17.28c-8.29-11.85-18.38-22.19-27.81-33.1-38.84-42.66-83.9-79.24-132-110.57-96.82-62.26-204.71-103.71-313.92-135.35l-41.13-11.47-41.3-10.67-41.45-9.96c-13.98-3.27-28.03-5.96-42.13-8.19-28.22-4.36-56.64-7.37-85.17-8.12-14.25-.46-28.56-.08-42.77,1.27-14.14,1.53-28.44,3.97-41.45,9.8Z"/><path class="cls-2" d="M1283.82,402.34c-6.92-14.9,51.12-8.51,66.69-6.55,45.31,5.69,134.25,32.26,150.61,82.08,14.99,45.66-78.29,23.14-93.61,15.4-18.31-9.26-37.48-22.24-54.13-33.97-24.1-16.97-57.19-30.29-69.57-56.96Z"/><path class="cls-2" d="M1274.63,394.39c32.16,138.55-324.47,76.74-129.96,12.86,18.82-6.19,35.94-11.22,55.92-12.67,24.08-1.74,68.42-24.4,74.04-.2Z"/><path class="cls-2" d="M1121.36,228.11c19.59,2.42-2.71,36.18-8.27,52.26-12.28,35.55-35.02,91.04-73.2,106.91-73.38,30.51-61.1-48.19-30.19-83.92,12.29-14.21,27.85-25.69,42.07-37.49,20.74-17.21,44.31-40.89,69.59-37.76Z"/><path class="cls-2" d="M944.97,134.97c52.25,8.29,85.54,6.87,131.23-31.04,20.34-16.88,67.27-85.82,6.16-81.39-32.65,2.37-169.83,107.27-137.38,112.42Z"/><path class="cls-2" d="M941.17,130.08c-.72,52.33,12.78,92.9-18.03,143.39-20.85,34.17-82.57,41.35-81.63-9.59,.86-46.51,47.82-98.06,82.23-124.79,3.81-2.96,17.48-12.23,17.43-9.01Z"/><path class="cls-2" d="M474.64,1.63c82.61-12.5,200.55,208.31,112.76,244.82-67.09,27.91-88.94-133.06-101.2-170.38-6.42-19.55-16.9-73.64-11.57-74.44Z"/></g><g><path class="cls-1" d="M1232.06,313.2c14.02-1.38,28.02-2.96,41.85-5.23l41.89-7.04,41.79-7.47,41.64-8.08c55.34-11.45,110.34-24.38,164.06-41.26,53.74-16.67,106.43-36.67,156.38-62.05,50.07-25.02,97.42-55.46,139.59-91.98,10.35-9.33,21.34-18.03,30.69-28.4l14.57-15.01,7.25-7.52c2.21-2.62,4.5-5.11,6.65-7.84,17.4-21.52-.35,27.71-.35,27.71l-14.79,15.78c-9.52,10.89-20.67,20.07-31.22,29.9-43.22,38.22-91.97,69.72-143.16,95.67-102.98,51.44-214.71,80.99-326.7,100.66l-42.12,6.96-42.22,6.15-42.28,5.43c-14.26,1.75-28.51,2.9-42.77,3.59-28.52,1.29,28.45,2.34,0,0-14.22-1.08-28.77-7.18-.73-9.97Z"/><path class="cls-2" d="M1808.16,143.71c7.23,22.12,59.77-9.58,80.45-17.23,18.89-6.98,37.29-14.55,54.39-25.32,30.76-19.37,85.89-79.23,16.34-88.65-48.97-6.63-165.53,87.35-151.18,131.2Z"/><path class="cls-2" d="M1688.52,210.96c55.53-10.91,84.73-63.16,92.27-122.2,3.86-30.26,.95-89.65-45.56-67.77-32.59,15.34-76.98,195.91-46.71,189.97Z"/><path class="cls-2" d="M1681.82,220.93c-23.42,16.31,145.71,115.61,181,99.38,41.05-18.88,11.79-54.39-15.14-68.97-41.75-22.6-126.04-58.14-165.85-30.41Z"/><path class="cls-2" d="M513.87,10.62c9.78-17.15-30.62-19.47-46.83-24.64-35.84-11.43-93.91-26.39-129.46-5.3-68.34,40.55,2.07,77.79,49.2,74.39,18.74-1.35,37.25-6.95,55.21-11.28,26.2-6.32,59.27-11.05,71.89-33.18Z"/><path class="cls-2" d="M1573.21,247.2c4.93-52.1,22.74-90.98-2.44-144.5-17.03-36.22-77.62-50.03-82.19,.71-4.17,46.33,36.95,102.65,68.28,132.94,3.47,3.35,16.05,14.05,16.36,10.84Z"/><path class="cls-2" d="M1284.03,300.93c56.36,14.89,154.81-129.39,96.67-161.33-44.43-24.41-71.72,85.6-83.03,110.56-5.93,13.08-17.27,49.81-13.63,50.76Z"/></g><g><path class="cls-1" d="M457.98,13.65c11.92-4.97,93.44-35.29,105.84-42.26,9.4-5.28,22.53-12.94,32.9-18.98,10.37-6.04,23.17-12.96,33.28-18.97,10.11-6.01,20.91-16.48,29.62-21.72,46.48-27.94,83.58-20.9,133.43-14.13,49.85,6.77,95.97,3.49,144.87-1.16,48.9-4.65,93.79-11.64,141-23.79,11.79-3.03,22.05-5.87,33.69-9.92,4.37-1.52,12.41-4.16,16.52-5.23,4.11-1.07,5.96-1.56,9.17-2.55,3.21-.98,5.86-1.85,8.83-2.91,23.63-8.43,47.72-18.32,70.14-28.83,22.42-10.51,79.21-45.18,100.08-57.88,20.88-12.7-49.02,46.76-93.66,69.86-22.39,11.59-47.17,21.48-70.83,31.16-2.94,1.21-5.88,2.25-9.14,3.32-3.26,1.07-5.22,1.63-9.37,2.8-4.15,1.17-12.92,3.96-17.23,5.46-11.51,4-23.72,7.35-34.92,10.55-44.87,12.8-99.35,21.16-143.16,25.34-87.85,8.38-206.69-28.04-276.44,11.22-6.54,3.68-20.03,14.21-29.14,19.83-9.11,5.63-22.34,13.26-32.61,18.69-10.27,5.43-24.01,12.73-33.46,17.59-12.73,6.54-23.47,11.06-35.76,15.42-24.56,8.72-48.52,15.83-73.59,21.6-12.53,2.88-23.91,5.43-.06-4.52Z"/><path class="cls-2" d="M806.1-94.06c42.39,5.37,66.4,32.53,86.2,78.1,8.81,20.29,172.41,317.9-34.93,61.31-23.86-13.39-77.6-142.74-51.27-139.4Z"/></g></g><g><g><g><path class="cls-1" d="M348.33,93.91c2.83,13.81,6.5,27.45,11.01,40.82,8.83,26.8,19.8,52.89,31.95,78.32,6.06,12.72,12.3,25.35,19.14,37.58l20.86,37.01,21.22,36.76,21.75,36.41c29.57,48.16,60.42,95.49,94.54,140.28,33.93,44.88,70.65,87.64,111.48,126,40.54,38.6,85.25,72.78,133.93,100.04,12.29,6.56,24.21,13.94,37.14,19.21l19.07,8.6,9.54,4.27c3.21,1.19,6.33,2.5,9.63,3.59,26.15,9.06,53.52,15.99,80.95,21.85,27.49,5.75,55.31,10.08,83.25,12.82,27.93,2.86,56.06,3.69,83.97,1.78,27.8-2.03,55.8-7.06,80.73-19.56,12.28-6.44-.16,1.74,8.42-9.23,8.73-10.87,6.65,6.58-5.79,13.99-25.27,14.44-53.95,21.17-82.4,24.81-57.3,6.26-114.94,1.1-171.25-8.89-28.21-5.14-56.15-11.42-83.75-20.57-3.45-1.08-6.91-2.44-10.37-3.66l-9.96-4.24-19.87-8.55c-13.48-5.26-25.9-12.62-38.73-19.2-50.63-27.66-96.82-62.81-138.62-102.15-83.37-79.38-149.12-174.43-205.66-273.07l-20.86-37.25-20.12-37.62-19.47-37.93c-6.48-12.81-12.41-25.83-17.91-39.01-10.9-26.39-20.54-53.29-28-80.84-3.81-13.74-6.83-27.73-8.87-41.86-1.85-14.1,.21-14.29,3.04-.51Z"/><path class="cls-2" d="M707.08,663.41c6.98,18.47,34.51-11.18,48.83-20.38,31.65-20.33,80.19-55.54,86.6-96.38,12.32-78.51-61.26-47.99-88.68-9.52-10.9,15.3-18.39,33.13-26.5,49.73-11.82,24.22-29.27,52.71-20.26,76.54Z"/><path class="cls-2" d="M569.27,511.48c50.68-13.06,93.29-9.52,135.07-51.38,28.28-28.33,20.68-90-28.6-77.06-44.99,11.81-83.99,69.62-101.84,109.38-1.97,4.4-7.76,19.87-4.64,19.07Z"/><path class="cls-2" d="M324.1,78.73c7.37,83.22,249.79,145.67,264.52,51.75,11.27-71.78-150.3-55-189.46-58.09-20.52-1.62-75.54,.97-75.06,6.34Z"/></g><path class="cls-2" d="M348.81,90.71c4.38,19.25-34.95,9.74-51.97,9.98-37.61,.53-97.52-2.01-125.42-32.52C117.8,9.52,195.99-5.66,240.1,11.26c17.54,6.73,33.62,17.46,49.55,26.83,23.23,13.66,53.51,27.78,59.16,52.62Z"/><g><path class="cls-1" d="M326.83,127.69c-2.02,12.76,2.95,40.9-.89,54.59-2.91,10.38-7.26,24.95-10.67,36.46-3.42,11.5-7.12,25.58-10.57,36.82-3.45,11.24-11.08,24.21-14.11,33.91-16.18,51.76-.57,86.15,17.78,132.99,18.35,46.84,26.05,92.43,33.08,141.04,7.03,48.62,10.84,93.89,10.19,142.63-.16,12.17-.5,22.81-1.68,35.08-.44,4.6-1.11,13.04-1.18,17.28-.07,4.25-.11,6.16-.31,9.51-.2,3.35-.41,6.14-.74,9.27-2.61,24.95-6.53,50.69-11.44,74.97-4.91,24.27-10.63,46.92-18.04,70.2-7.41,23.28-14.72,46.43-24.82,68.73-10.09,22.3-21.64,42.29-39.29,59.72-8.76,8.65-19.18,12.55-31.47,15.49-12.29,2.94-27.79,1.24-39.93-2.94,12.42,5.16,27.81,8.21,40.88,5.94,13.06-2.27,24.05-6.02,33.49-14.43,19.01-16.95,33.01-36.88,43.84-59.33,21.81-45.22,36.6-91.14,48.51-139.98,5.97-24.49,9.73-50.91,13.55-76.19,.48-3.14,.8-6.24,1.07-9.66,.27-3.42,.35-5.46,.51-9.77,.16-4.31,.79-13.49,1.23-18.03,1.17-12.12,1.54-24.78,2-36.43,1.84-46.62-2.9-101.53-9.19-145.1-12.6-87.34-76.06-194.22-54.39-271.27,2.03-7.23,9.08-22.82,12.39-33,3.32-10.18,7.61-24.84,10.46-36.1,2.85-11.26,6.7-26.34,9.19-36.67,3.35-13.92,5.2-25.41,6.54-38.39,2.68-25.92,.48-40.43,.16-66.15-1.95-.44-12.1,23.26-16.13,48.78Z"/><path class="cls-2" d="M319.57,433.16c15.23,39.92,47.29,56.84,96.25,65.32,21.79,3.77,349.63,92.45,51.32-48.42-18.64-20.03-157.03-41.69-147.57-16.9Z"/><path class="cls-2" d="M315.28,427.9c-29.35,32.21-40.75,70.31-88.27,82.92-32.16,8.53-70.8-28.52-40.56-61.1,27.61-29.74,75.27-33.48,113.52-27.87,4.24,.62,17.13,4.08,15.32,6.06Z"/><path class="cls-2" d="M292.17,290.07c3.43,50.59-105.52,140.08-140.49,87.73-26.73-40.01,75.39-64.19,95.27-74.29,10.42-5.29,45-16.7,45.23-13.44Z"/></g></g><g><g><path class="cls-1" d="M572.74-29.12L590.99-.47l18.66,28.35c25.32,37.46,51.63,74.22,80.48,108.83,28.69,34.69,59.54,67.59,93.52,96.82,33.76,29.43,70.69,55.2,110.56,75.28,10.06,4.82,19.84,10.3,30.36,14.06l15.54,6.21,7.78,3.08c2.61,.84,5.15,1.77,7.83,2.53,21.22,6.33,43.34,10.91,65.47,14.63,22.18,3.64,44.56,6.12,66.99,7.33,22.43,1.31,44.94,.99,67.19-1.52,22.15-2.59,44.35-7.59,63.85-18.46,9.59-5.58,18.26-12.86,24.74-21.93,6.59-8.99,10.73-19.75,12.55-30.97-1,11.3-4.35,22.55-10.5,32.36-6.16,9.79-14.85,17.9-24.53,24.25-19.69,12.42-42.38,18.81-65,22.72-45.58,7-91.84,4.9-137.2-1.12-22.73-3.12-45.28-7.17-67.66-13.52-2.8-.74-5.61-1.71-8.41-2.57l-8.11-3.04-16.18-6.14c-10.95-3.73-21.15-9.18-31.63-14-41.44-20.34-79.59-46.82-114.38-76.8-69.42-60.54-125.3-134.21-173.95-211.09l-17.97-29.05-17.4-29.37,9.16-5.54Z"/><path class="cls-2" d="M1256.67,274.61c-5.9,17.66,42.97,22.34,59.91,27.29,15.47,4.52,30.9,8.43,47.02,9.66,29,2.22,92.96-9.96,52.76-49.18-28.3-27.61-148.01-22.79-159.7,12.23Z"/><path class="cls-2" d="M1244.7,287.7c24.68-37.96,10.94-83.85-18.76-121.07-15.22-19.08-50.95-50.5-64.3-11.6-9.35,27.26,69.6,153.36,83.06,132.67Z"/><path class="cls-2" d="M1151.83,362.98c-19.71,11.53,108.89,101.45,138.06,90.74,33.94-12.46,12.85-42.63-7.7-55.97-31.87-20.68-96.85-54.37-130.36-34.77Z"/><path class="cls-2" d="M1145.02,357.4c-16.52,31.44-73.72-93.35-67.08-126.93,5.56-28.15,55.22-5.25,61.61,12.17,15.66,42.67,26.16,75.39,5.47,114.76Z"/><path class="cls-2" d="M976.43,347.64c-12.99-2,4.85,41.18,9.82,52.71,14.47,33.55,54.7,95.98,96.63,97.46,38.43,1.35,.34-65.32-9.02-75.37-11.2-12.01-25.44-23.85-38.16-34.03-18.41-14.74-36.01-37.2-59.27-40.77Z"/><path class="cls-2" d="M968.27,342.35c113.64-6.15-13.31-266.45-19.07-102.74-.56,15.84-.61,30.12,2.72,45.79,4.02,18.89-3.51,58.02,16.34,56.94Z"/><path class="cls-2" d="M806.35,261.61c6.23,14.52,27.2-10.15,38.32-18,24.59-17.36,62.16-47.2,65.85-80.07,7.1-63.19-50.64-36.22-71.22-4.5-8.18,12.61-13.54,27.12-19.44,40.68-8.61,19.77-21.55,43.16-13.52,61.89Z"/><path class="cls-2" d="M695.47,146.81c18.01,38.3,24.34,64.21,5.38,107.76-8.44,19.39-50.96,70.81-61.17,22.86-5.46-25.62,44.6-154.41,55.79-130.62Z"/><path class="cls-2" d="M690.87,144.98c40.05-12.21,74.24-10.87,106.18-45.8,21.61-23.63,13.39-72.66-25.55-60.6-35.55,11.02-64.71,58.59-77.58,90.99-1.42,3.59-5.51,16.16-3.04,15.4Z"/></g><path class="cls-2" d="M265.9,209.02c8.05,12.11-47.84,68.24-109.66,45.56-49.93-24.11-14.21-54.26,20.93-61.08,13.97-2.71,78.34-.11,88.73,15.52Z"/></g><g><path class="cls-1" d="M369.44,480.78c-4.23,10.58-5.68,21.93-6.44,33.16-.77,11.25-.85,22.55-.23,33.83,1.09,22.55,3.97,45.01,7.92,67.21,1.96,11.1,4.07,22.17,6.73,33.07l8.18,32.99,8.51,32.88,9,32.72c12.52,43.45,26.2,86.53,42.95,128.36,16.58,41.85,35.77,82.67,59.07,120.96,23.02,38.42,50.2,74.32,81.92,105.74,8.08,7.68,15.69,15.92,24.54,22.74l12.87,10.71,6.45,5.33c2.22,1.61,4.35,3.28,6.66,4.83,18.23,12.57,37.86,23.76,57.75,34.13,19.97,10.3,40.5,19.58,61.46,27.66,20.93,8.17,42.44,14.82,64.37,19.3,21.87,4.37,44.53,6.47,66.43,2.15,10.85-2.34,21.34-6.59,30.3-13.22,9.05-6.52,16.3-15.47,21.5-25.58-4.44,10.44-11.1,20.1-19.97,27.54-8.88,7.41-19.65,12.44-30.82,15.5-22.57,5.74-46.12,4.81-68.84,1.54-45.52-7.41-88.86-23.69-130.15-43.42-20.65-9.98-40.86-20.8-60.19-33.74-2.43-1.57-4.81-3.36-7.21-5.04l-6.77-5.39-13.49-10.84c-9.27-6.93-17.28-15.26-25.77-23.08-33.13-32.14-61.25-69.1-85.08-108.36-47.34-79.01-77.75-166.34-100.29-254.48l-8.13-33.18-7.49-33.3-6.92-33.4c-2.26-11.26-4.05-22.57-5.48-33.9-2.77-22.68-4.46-45.48-4.33-68.32,0-11.41,.66-22.84,2.1-34.17,1.58-11.27,3.89-22.64,8.89-32.9Z"/><g><path class="cls-2" d="M318.5,303.6c-28.83-.65,25.95-110.79,49.55-120.54,19.78-8.17,30.49,39.54,23.08,52.21-18.16,31.05-36.52,69.14-72.62,68.32Z"/><path class="cls-2" d="M228.12,280.08c76.63,65.67,156.45-154.67,53.63-74.96-9.95,7.71-20.62,20.93-27.37,29.69-8.14,10.55-39.64,33.81-26.25,45.28Z"/></g></g></g></g></svg>